<?xml version="1.0" encoding="UTF-8" standalone="no"?>
<svg
   xmlns:dc="http://purl.org/dc/elements/1.1/"
   xmlns:cc="http://creativecommons.org/ns#"
   xmlns:rdf="http://www.w3.org/1999/02/22-rdf-syntax-ns#"
   xmlns:svg="http://www.w3.org/2000/svg"
   xmlns="http://www.w3.org/2000/svg"
   xmlns:sodipodi="http://sodipodi.sourceforge.net/DTD/sodipodi-0.dtd"
   xmlns:inkscape="http://www.inkscape.org/namespaces/inkscape"
   id="svg40"
   viewBox="0 0 1920 1080"
   height="1080mm"
   width="1920mm"
   version="1.1"
   sodipodi:docname="stalagmites0-rework.svg"
   inkscape:version="0.92.4 (5da689c313, 2019-01-14)">
  <metadata
     id="metadata26">
    <rdf:RDF>
      <cc:Work
         rdf:about="">
        <dc:format>image/svg+xml</dc:format>
        <dc:type
           rdf:resource="http://purl.org/dc/dcmitype/StillImage" />
        <dc:title></dc:title>
      </cc:Work>
    </rdf:RDF>
  </metadata>
  <defs
     id="defs24" />
  <sodipodi:namedview
     pagecolor="#ffffff"
     bordercolor="#666666"
     borderopacity="1"
     objecttolerance="10"
     gridtolerance="10"
     guidetolerance="10"
     inkscape:pageopacity="0"
     inkscape:pageshadow="2"
     inkscape:window-width="1920"
     inkscape:window-height="986"
     id="namedview22"
     showgrid="false"
     inkscape:zoom="0.11313708"
     inkscape:cx="3734.5651"
     inkscape:cy="2720.1131"
     inkscape:window-x="-11"
     inkscape:window-y="-11"
     inkscape:window-maximized="1"
     inkscape:current-layer="layer3"
     inkscape:snap-global="false" />
  <g
     inkscape:groupmode="layer"
     id="layer2"
     inkscape:label="Layer 1"
     style="display:inline;opacity:0.56" />
  <g
     inkscape:groupmode="layer"
     id="layer3"
     inkscape:label="Layer 2"
     style="opacity:0.538">
    <path
       style="fill:#000080;stroke:#000080;stroke-width:0.26458335px;stroke-linecap:butt;stroke-linejoin:miter;stroke-opacity:1"
       d="M -58.465211,90.768662 -51.449387,495.34793 -35.079126,298.9048 39.756343,537.44287 56.126601,336.32255 116.93042,93.107272 112.2532,266.1643 l 14.03166,102.89877 7.01582,-100.56017 51.44939,-154.34815 9.35443,-70.158255 14.03165,142.655115 2.33861,70.15825 28.0633,-140.31651 18.70887,49.11078 35.07911,-119.269028 7.01585,114.591808 30.4019,-35.07912 V 95.445879 l 70.15824,77.174081 4.67722,63.14243 30.40193,-147.332335 2.33859,65.481035 4.67723,42.09495 L 465.38307,65.04397 505.13942,172.61996 561.26601,36.980668 582.31351,149.23387 615.054,43.996495 V 100.1231 l 23.3861,70.15825 49.11077,-184.750067 9.35445,60.803819 84.18989,-198.781722 65.48104,149.670945 9.35443,28.063301 53.78799,-98.221553 9.35445,-44.433563 49.11077,123.9462487 51.44941,49.1107773 -39.75636,-168.379806 81.85126,81.851293 11.6931,51.449386 v 35.079127 l 65.481,-173.057026 -9.3544,135.639291 -7.0159,112.253199 46.7722,-161.363977 4.6772,-93.544333 35.0792,159.025371 28.0633,49.110777 11.693,44.433562 25.7247,-70.158257 2.3386,133.300687 37.4177,-63.14243 V 39.319278 l 46.7722,154.348152 -11.693,93.54435 51.4493,-180.07286 9.3545,-72.496859 32.7405,114.591809 v 77.17408 L 1475.6619,90.768662 V 27.626234 l 35.0792,133.300676 -14.0317,109.91459 14.0317,137.97791 23.386,-180.07285 18.7089,-119.26903 V 36.980668 l 49.1108,144.993722 -23.3861,116.93041 25.7247,98.22156 53.788,-245.55388 v 175.39564 l 72.4968,133.30066 -23.386,-121.60763 32.7405,-152.00954 35.0791,245.55387 39.7563,130.96209 23.3861,-182.41145 28.0633,81.85129 72.4969,-327.40519 63.1424,-271.27857 L 837.22183,-208.57322 9.3544337,-96.320012 Z"
       id="path3805"
       inkscape:connector-curvature="0" />
  </g>
</svg>
