<?xml version="1.0" encoding="UTF-8" standalone="no"?>
<svg
   xmlns:dc="http://purl.org/dc/elements/1.1/"
   xmlns:cc="http://creativecommons.org/ns#"
   xmlns:rdf="http://www.w3.org/1999/02/22-rdf-syntax-ns#"
   xmlns:svg="http://www.w3.org/2000/svg"
   xmlns="http://www.w3.org/2000/svg"
   version="1.1"
   width="1920mm"
   height="1080mm"
   viewBox="0 0 1920 1080"
   id="svg40">
  <metadata
     id="metadata26">
    <rdf:RDF>
      <cc:Work
         rdf:about="">
        <dc:format>image/svg+xml</dc:format>
        <dc:type
           rdf:resource="http://purl.org/dc/dcmitype/StillImage" />
        <dc:title></dc:title>
      </cc:Work>
    </rdf:RDF>
  </metadata>
  <defs
     id="defs24" />
  <g
     id="layer1"
     transform="translate(-16.370259,825.09495)">
    <path
       style="fill:#4067a5;stroke:#4067a5"
       strokeWidth="0.265"
       d="m -15.119047,-614.67866 33.261904,320.52379 34.773809,134.55954 7.559524,145.142851 25.702381,117.928569 6.047619,137.58334 18.14286,10.58333 -1.51191,-69.54763 6.04762,-86.178578 -15.119046,-126.999998 42.333336,-217.714274 -9.07143,-134.55951 31.75,155.72618 28.72619,223.7619044 37.79761,98.2738156 -9.07142,-80.130966 -19.65476,-66.523817 4.53571,-179.916667 -9.07143,-119.44045 36.28572,-99.78573 31.75,-78.61904 9.07142,-28.72619 6.04761,-24.19048 13.60715,6.04763 3.02382,72.57142 -4.53573,90.7143 18.14288,43.84521 4.5357,52.91667 10.58333,71.05954 12.09524,43.84524 v -60.47621 l -1.51191,-49.89285 3.02382,-69.5476 -7.55952,-48.38097 18.14285,-166.30952 25.70237,-49.89285 13.60715,71.05952 21.16667,78.61906 -1.51191,98.27379 13.60715,102.80951 16.63094,52.91667 -1.51188,54.42857 15.11903,34.77382 -3.02382,34.77382 18.14288,-36.28573 1.51191,-71.05951 -7.55955,-105.83333 13.60715,-179.91667 25.7024,-46.86905 -13.60715,-61.98809 43.84524,-60.47619 52.91666,69.54762 -9.07142,90.71428 6.04761,37.79761 12.09524,-39.30952 3.02381,-45.35714 19.65476,-45.35714 15.11903,120.95238 -4.53569,125.48809 7.55951,61.98809 7.55952,40.82142 7.55954,-36.2857 c 0,0 -9.07145,-16.63096 -9.07145,-28.72618 0,-12.09524 12.09524,-143.63096 12.09524,-143.63096 l 6.04764,-95.25 33.2619,-60.47619 4.5357,155.72619 31.75,80.13096 -10.58333,105.83333 10.58333,51.40476 16.63097,-92.22621 9.07142,-74.08333 -19.65475,-148.16665 51.40475,-84.66667 3.02379,-78.61904 71.05955,-40.82143 6.0476,45.35714 25.7024,83.15476 6.0476,-27.21428 -12.09524,-51.40476 43.84524,-66.52381 71.05949,136.07142 -1.51185,250.9762 9.07145,184.45236 19.6547,-122.46427 c 0,0 -19.6547,-119.44048 -15.119,-136.07142 4.5357,-16.63097 42.3333,-95.25001 42.3333,-95.25001 l -25.7024,-123.97619 55.9405,-54.42857 27.2143,42.33333 60.4762,190.50001 c 0,0 -19.6548,57.45237 -19.6548,63.5 0,6.04761 21.1667,161.77379 21.1667,161.77379 l 16.6309,54.42857 1.5119,-84.66666 -13.6071,-78.61903 v -71.05955 l 39.3095,-77.10713 -21.1666,-68.03571 22.6785,-87.69048 54.4286,40.82143 -4.5357,58.96429 -4.5357,146.65475 31.75,77.10715 15.119,42.33334 -6.0476,-83.15476 -13.6071,-111.88097 46.869,-93.73808 37.7976,58.96428 4.5357,65.01189 3.0238,92.22621 -9.0714,58.96428 15.1191,127 12.0952,68.03572 6.0476,-71.05954 -4.5357,-57.45237 -3.0238,-54.42857 36.2857,-36.28573 -12.0952,-87.69045 c 0,0 -1.5119,-58.9643 -1.5119,-65.01191 0,-6.04763 33.2619,-54.42858 33.2619,-54.42858 l 46.869,98.27382 25.7024,101.29761 1.5119,108.85715 -12.0952,77.10712 7.5595,120.95239 13.6071,89.202391 6.0477,-77.107149 -7.5596,-71.059512 30.2381,-61.98812 -1.5119,-71.05952 -1.5119,-110.36903 22.6786,-65.01191 24.1905,68.0357 13.6071,145.14288 25.7024,68.0357 16.6309,-134.55952 24.1905,-86.17857 48.381,148.16666 16.6309,166.309516 -19.6547,166.309544 16.6309,31.75 16.631,-96.761911 31.75,-161.773819 7.5595,-151.19048 31.75,102.80954 24.1905,193.523792 24.1904,145.142878 4.5358,-77.10715 -7.5596,-122.464303 9.0715,-211.666667 40.8214,-166.30951 40.8214,-160.2619 69.5476,-430.89285 -544.2857,10.58333 -1262.44044,-22.67859 -515.55951,39.30955 139.09523,554.86903 z"
       id="path60" />
  </g>
</svg>
